<?xml version="1.0" encoding="utf-8"?>
<!-- Generator: Adobe Illustrator 25.4.1, SVG Export Plug-In . SVG Version: 6.00 Build 0)  -->
<svg version="1.1" id="Layer_1" xmlns="http://www.w3.org/2000/svg" xmlns:xlink="http://www.w3.org/1999/xlink" x="0px" y="0px"
	 viewBox="0 0 90 30" style="enable-background:new 0 0 90 30;" xml:space="preserve">
<style type="text/css">
	.st0{fill:#412888;}
</style>
<g>
	<path class="st0" d="M73.23,9.92L73.23,9.92l0,1.35v3.93c-0.96-1.33-6.49-8.77-12.79-8.75c0,0,0,0,0,0c0,0,0,0,0,0
		c-0.69,0-3.45,0.03-5.49,1.78c-1.38,1.19-2.07,2.73-2.07,4.58c0,2.45,1.15,4.27,3.49,5.45c0.46,0.24,1.34,0.63,2.65,1.14
		c1.34,0.51,2.19,0.87,2.53,1.07c1.04,0.51,1.57,1.23,1.57,2.05c0,1.26-1.27,2.25-3.07,2.25c-6.65,0-12.66-9.56-12.66-14.89
		c0,0,0,0,0,0c0,0-0.07,0-0.2,0c-0.03,0-0.07,0-0.11,0c-0.04,0-0.08,0-0.13,0c-0.05,0-0.09,0-0.14,0c-0.05,0-0.1,0-0.16,0
		c-1.34,0-4.01,0-4.02,0c-1.88-2.17-4.15-3.24-6.79-3.24c0,0,0,0,0,0c0,0,0,0,0,0c-2.96,0-5.45,1.07-7.41,3.16
		c-1.95,2.09-2.92,4.27-2.92,8.75c-2.22,2.9-6.61,6.11-13.23,6.11c-1.08-0.05-3-0.15-4.56-1.6c-0.91-0.85-1.51-1.99-1.81-3.34h15.89
		h0c0.11-0.95,0.15-1.7,0.15-2.29c0-3.32-0.96-5.93-2.92-7.86c-1.92-1.94-4.38-2.92-7.41-2.92c0,0,0,0,0,0s0,0,0,0
		c-3.19,0-5.8,1.07-7.83,3.2c-2,2.09-2.99,4.78-2.99,8.02c0,0.9,0.06,5.22,3.27,8.33c2.89,2.8,6.53,2.86,8.02,2.89
		c0.19,0,0.39,0,0.58,0c5.97-0.08,11.61-3.07,14.16-5.54c0.43,0.83,0.96,1.61,1.6,2.33c1.96,2.17,4.41,3.24,7.41,3.24c0,0,0,0,0,0
		c0,0,0,0,0,0c2.72,0,4.99-1.07,6.79-3.16v2.65h0h4.76h0V21.5c0.88,1.14,5.98,7.72,12.62,7.66c0,0,0,0,0,0c0,0,0,0,0,0
		c0.76-0.01,3.7-0.04,5.87-1.94c1.5-1.3,2.23-2.92,2.23-4.86c0-2.33-1.19-4.15-3.53-5.45c-0.35-0.2-2.03-0.91-5.03-2.13
		c-1.19-0.43-1.8-1.14-1.8-2.09c0-1.14,0.96-2.01,2.53-2.01c7.17,0,12.94,11.59,12.94,17.93h0h2.93h0h2.09h0V11.27V9.92h0H73.23z
		 M41.03,22.53c-1.15,1.26-2.61,1.9-4.41,1.9c-1.8,0-3.26-0.63-4.41-1.9c-1.11-1.26-1.69-2.8-1.69-4.66c0-1.82,0.58-3.36,1.69-4.62
		c1.15-1.26,2.61-1.9,4.41-1.9c1.8,0,3.26,0.63,4.41,1.9c1.15,1.26,1.73,2.8,1.73,4.62C42.76,19.72,42.18,21.26,41.03,22.53z
		 M5.92,15.82c0.65-3,2.8-4.86,5.72-4.86c2.88,0,4.99,1.86,5.41,4.86H5.92z"/>
	<path class="st0" d="M75.7,8C75.7,8,75.7,8,75.7,8C75.7,8,75.7,8,75.7,8c1.92,0,3.48-1.6,3.48-3.58c0-1.98-1.56-3.58-3.48-3.58
		c0,0,0,0,0,0c0,0,0,0,0,0c-1.92,0-3.48,1.6-3.48,3.58C72.22,6.4,73.78,8,75.7,8z"/>
</g>
</svg>
